<?xml version="1.0" encoding="utf-8"?>
<!-- Generator: Adobe Illustrator 23.0.3, SVG Export Plug-In . SVG Version: 6.00 Build 0)  -->
<svg version="1.1" id="Layer_1" xmlns="http://www.w3.org/2000/svg" xmlns:xlink="http://www.w3.org/1999/xlink" x="0px" y="0px"
	 viewBox="0 0 103.2 93.6" style="enable-background:new 0 0 103.2 93.6;" xml:space="preserve">
<style type="text/css">
	.st0{opacity:0.598;enable-background:new    ;}
	.st1{fill:#06A500;}
	.st2{fill:#FFFFFF;}
</style>
<g id="Group_2391" transform="translate(-830 -119.857)">
	<g id="Path_1587" class="st0">
		<path class="st1" d="M879.4,120.5c29.3,5.7,44,20.7,52.4,44.4s-25.6,36.1-52.4,46.4c-26.8,10.2-49.4-18-49.4-40.1
			S850.2,114.8,879.4,120.5z"/>
	</g>
	<g id="Path_1588">
		<path class="st1" d="M880.4,200c-21.6-4.2-32.8-15.6-39-33s10-27.1,29.8-34.6c19.8-7.5,45.3,13.7,45.3,30.1S902,204.2,880.4,200z"
			/>
	</g>
	<g id="Path_1589">
		<polygon class="st2" points="871.3,179.3 857.3,165.3 862.2,160.4 871.3,169.4 890.5,150.2 895.5,155.2 		"/>
	</g>
</g>
</svg>
