<?xml version="1.0" encoding="utf-8"?>
<!-- Generator: Adobe Illustrator 23.0.3, SVG Export Plug-In . SVG Version: 6.00 Build 0)  -->
<svg version="1.1" id="Layer_1" xmlns="http://www.w3.org/2000/svg" xmlns:xlink="http://www.w3.org/1999/xlink" x="0px" y="0px"
	 viewBox="0 0 103.2 93.6" style="enable-background:new 0 0 103.2 93.6;" xml:space="preserve">
<style type="text/css">
	.st0{opacity:0.598;enable-background:new    ;}
	.st1{fill:#F92B31;}
	.st2{fill:#FFFFFF;}
</style>
<g id="Group_2400" transform="translate(-134.999 -88.857)">
	<g id="Path_1587" class="st0">
		<path class="st1" d="M184.4,89.5c29.3,5.7,44,20.7,52.4,44.4c8.4,23.7-25.6,36.1-52.4,46.4s-49.4-18-49.4-40.1
			S155.2,83.8,184.4,89.5z"/>
	</g>
	<g id="Path_1588">
		<path class="st1" d="M185.3,170.3c-21.6-4.2-32.8-15.6-39-33s10-27.1,29.8-34.6s45.3,13.7,45.3,30.1S206.9,174.5,185.3,170.3z"/>
	</g>
	<g id="Group_2399" transform="translate(-0.424 4.534)">
		<g id="Path_1884">
			
				<rect x="180.2" y="114.8" transform="matrix(0.7071 -0.7071 0.7071 0.7071 -38.6528 168.2174)" class="st2" width="7" height="32"/>
		</g>
		<g id="Path_1885">
			
				<rect x="167.7" y="127.3" transform="matrix(0.707 -0.7072 0.7072 0.707 -38.6515 168.2328)" class="st2" width="32" height="7"/>
		</g>
	</g>
</g>
</svg>
