<svg xmlns="http://www.w3.org/2000/svg" xmlns:xlink="http://www.w3.org/1999/xlink" viewBox="0 0 116.92 55.98">
  <defs>
    <linearGradient id="linear-gradient" x1="0.159" y1="0.911" x2="0.8" y2="0.138" gradientUnits="objectBoundingBox">
      <stop offset="0" stop-color="#ed1c48"/>
      <stop offset="1" stop-color="#fecb37"/>
    </linearGradient>
  </defs>
  <g id="Group_2191" data-name="Group 2191" transform="translate(-128.641 -90.83)">
    <g id="Component_11_5" data-name="Component 11 – 5" transform="translate(128.64 129.347)">
      <path id="Path_1365" data-name="Path 1365" d="M0,322.633l6.431-8.795L.44,305.52H5.607L8.74,310.3l3.408-4.783H17.1l-5.826,8.318,6.267,8.795H12.587L8.74,317.165l-3.628,5.468Z" transform="translate(0 -305.376)" fill="#ffffff"/>
      <g id="Group_1148" data-name="Group 1148" transform="translate(35.568)">
        <path id="Path_1366" data-name="Path 1366" d="M290.131,304.38a14.247,14.247,0,0,1,2.645.251,8.815,8.815,0,0,1,2.291.729l-.607,3.045a11.132,11.132,0,0,0-1.734-.519,8.981,8.981,0,0,0-1.936-.215,5.857,5.857,0,0,0-4.075,1.348,6.358,6.358,0,0,0,0,8.187,5.857,5.857,0,0,0,4.075,1.348,8.981,8.981,0,0,0,1.936-.215,11.132,11.132,0,0,0,1.734-.519l.607,3.045a8.861,8.861,0,0,1-2.291.729,14.25,14.25,0,0,1-2.645.251,10.79,10.79,0,0,1-3.923-.658,7.911,7.911,0,0,1-2.835-1.822,7.638,7.638,0,0,1-1.721-2.759,10.769,10.769,0,0,1,0-6.985,7.638,7.638,0,0,1,1.721-2.759,7.909,7.909,0,0,1,2.835-1.822A10.789,10.789,0,0,1,290.131,304.38Z" transform="translate(-281.07 -304.38)" fill="#ffffff"/>
      </g>
      <g id="Group_1149" data-name="Group 1149" transform="translate(52.411 0.302)">
        <path id="Path_1367" data-name="Path 1367" d="M427.642,318.877a3.751,3.751,0,0,1-.549,2.021,4.485,4.485,0,0,1-1.578,1.491,8.424,8.424,0,0,1-2.469.922,14.989,14.989,0,0,1-3.2.315H414.17V306.77h6.558a10.459,10.459,0,0,1,2.647.3,6.43,6.43,0,0,1,1.961.836,3.957,3.957,0,0,1,1.221,1.243,2.957,2.957,0,0,1,.425,1.546,3.641,3.641,0,0,1-.947,2.587,5.83,5.83,0,0,1-2.757,1.521,7.806,7.806,0,0,1,1.729.48,5.117,5.117,0,0,1,1.386.834,3.613,3.613,0,0,1,.919,1.187A3.575,3.575,0,0,1,427.642,318.877Zm-7.765-5.373a3.375,3.375,0,0,0,1.921-.5,1.619,1.619,0,0,0,.74-1.425,1.461,1.461,0,0,0-.644-1.271,3.106,3.106,0,0,0-1.8-.449h-1.536V313.5Zm3.319,5.049a1.6,1.6,0,0,0-.836-1.465,4.55,4.55,0,0,0-2.318-.5H418.56v3.948h1.592a3.674,3.674,0,0,0,2.346-.586A1.775,1.775,0,0,0,423.2,318.553Z" transform="translate(-414.17 -306.77)" fill="#ffffff"/>
      </g>
      <g id="Group_1150" data-name="Group 1150" transform="translate(85.255 0.304)">
        <path id="Path_1368" data-name="Path 1368" d="M685.223,323.636l-7.312-10.048v10.048h-4.2V306.78h4.2l7.312,10.048V306.78h4.2v16.856Z" transform="translate(-673.71 -306.78)" fill="#ffffff"/>
      </g>
      <g id="Group_1151" data-name="Group 1151" transform="translate(102.137 0.304)">
        <path id="Path_1369" data-name="Path 1369" d="M807.12,323.636V306.78h4.216v8.074l5.4-8.074h4.757l-5.784,8.327,6.2,8.529h-5.064l-5.5-8.251v8.251Z" transform="translate(-807.12 -306.78)" fill="#ffffff"/>
      </g>
      <g id="Group_1152" data-name="Group 1152" transform="translate(17.866 0.304)">
        <path id="Path_1370" data-name="Path 1370" d="M153.938,320.371h-7l-1.125,3.265H141.18l6.8-16.856h4.939l6.8,16.856H155.09Zm-5.845-3.29h4.692l-2.332-7.112Z" transform="translate(-141.18 -306.78)" fill="#ffffff"/>
      </g>
      <g id="Group_1153" data-name="Group 1153" transform="translate(65.854 0.304)">
        <path id="Path_1371" data-name="Path 1371" d="M533.158,320.371h-7l-1.125,3.265H520.4l6.8-16.856h4.939l6.8,16.856h-4.637Zm-5.845-3.29h4.692l-2.332-7.112Z" transform="translate(-520.4 -306.78)" fill="#ffffff"/>
      </g>
    </g>
    <g id="Component_12_5" data-name="Component 12 – 5" transform="translate(194.798 90.83)">
      <path id="Path_1372" data-name="Path 1372" d="M550.376,16.844C556.069,13.362,556.6,6.33,556.6,6.33h-5.417c-1.927,7.083-7.452,7.669-8.578,7.713.032-1.011.538-6.669,7.851-8.625V0s-7.156.535-10.7,6.229c0,0-2.931-5.492-10.631-6.229V5.559s6.988.524,7.876,8.487H537s-6.631.186-8.781-7.717H522.8s.535,7.032,6.229,10.515A13.334,13.334,0,0,0,522.8,27.292h5.559s.53-6.944,8.621-7.753c-.02.892-.438,6.683-7.852,8.665v5.417s7.156-.535,10.7-6.229c0,0,2.931,5.492,10.631,6.229V28.061s-7-.525-7.877-8.508c7.941.883,8.463,7.737,8.463,7.737H556.6A13.33,13.33,0,0,0,550.376,16.844Z" transform="translate(-522.8)" fill="url(#linear-gradient)"/>
    </g>
  </g>
</svg>
