<svg xmlns="http://www.w3.org/2000/svg" xmlns:xlink="http://www.w3.org/1999/xlink"  viewBox="0 0 146.514 70.148">
  <defs>
    <clipPath id="clip-path">
      <rect width="42.36" height="42.13" fill="none"/>
    </clipPath>
    <linearGradient id="linear-gradient" x1="0.159" y1="0.911" x2="0.8" y2="0.138" gradientUnits="objectBoundingBox">
      <stop offset="0" stop-color="#ed1c48"/>
      <stop offset="1" stop-color="#fecb37"/>
    </linearGradient>
  </defs>
  <g id="Group_2147" data-name="Group 2147" transform="translate(-128.641 -90.83)">
    <g id="Component_11_4" data-name="Component 11 – 4" transform="translate(128.64 139.096)">
      <path id="Path_1365" data-name="Path 1365" d="M0,326.964l8.059-11.021L.552,305.52H7.026l3.926,5.994,4.27-5.994h6.2l-7.3,10.423,7.853,11.021h-6.2l-4.821-6.852-4.546,6.852Z" transform="translate(0 -305.339)" fill="#fff"/>
      <g id="Group_1148" data-name="Group 1148" transform="translate(44.57)">
        <path id="Path_1366" data-name="Path 1366" d="M292.424,304.38a17.853,17.853,0,0,1,3.314.314,11.043,11.043,0,0,1,2.87.913l-.761,3.815a13.937,13.937,0,0,0-2.173-.65,11.252,11.252,0,0,0-2.426-.27,7.34,7.34,0,0,0-5.106,1.689,7.967,7.967,0,0,0,0,10.26,7.34,7.34,0,0,0,5.106,1.689,11.255,11.255,0,0,0,2.426-.27,13.953,13.953,0,0,0,2.173-.65l.761,3.815a11.1,11.1,0,0,1-2.87.913,17.864,17.864,0,0,1-3.314.314,13.521,13.521,0,0,1-4.916-.825,9.914,9.914,0,0,1-3.552-2.283A9.571,9.571,0,0,1,281.8,319.7a13.495,13.495,0,0,1,0-8.753,9.571,9.571,0,0,1,2.157-3.457,9.91,9.91,0,0,1,3.552-2.284A13.522,13.522,0,0,1,292.424,304.38Z" transform="translate(-281.07 -304.38)" fill="#fff"/>
      </g>
      <g id="Group_1149" data-name="Group 1149" transform="translate(65.676 0.379)">
        <path id="Path_1367" data-name="Path 1367" d="M431.052,321.941a4.7,4.7,0,0,1-.688,2.532,5.621,5.621,0,0,1-1.977,1.868,10.555,10.555,0,0,1-3.094,1.156,18.782,18.782,0,0,1-4.006.395H414.17V306.77h8.217a13.1,13.1,0,0,1,3.317.382,8.056,8.056,0,0,1,2.458,1.048,4.959,4.959,0,0,1,1.53,1.557,3.705,3.705,0,0,1,.533,1.938,4.563,4.563,0,0,1-1.186,3.241,7.307,7.307,0,0,1-3.455,1.906,9.776,9.776,0,0,1,2.166.6,6.408,6.408,0,0,1,1.736,1.045,4.527,4.527,0,0,1,1.151,1.487A4.479,4.479,0,0,1,431.052,321.941Zm-9.73-6.733a4.229,4.229,0,0,0,2.407-.626,2.029,2.029,0,0,0,.928-1.786,1.831,1.831,0,0,0-.807-1.592,3.891,3.891,0,0,0-2.252-.563h-1.925v4.567Zm4.159,6.327a2.011,2.011,0,0,0-1.048-1.836,5.7,5.7,0,0,0-2.905-.622h-1.857v4.948h1.995a4.6,4.6,0,0,0,2.94-.734A2.224,2.224,0,0,0,425.481,321.535Z" transform="translate(-414.17 -306.77)" fill="#fff"/>
      </g>
      <g id="Group_1150" data-name="Group 1150" transform="translate(106.832 0.381)">
        <path id="Path_1368" data-name="Path 1368" d="M688.137,327.9l-9.162-12.591V327.9H673.71V306.78h5.265l9.162,12.591V306.78H693.4V327.9Z" transform="translate(-673.71 -306.78)" fill="#fff"/>
      </g>
      <g id="Group_1151" data-name="Group 1151" transform="translate(127.988 0.381)">
        <path id="Path_1369" data-name="Path 1369" d="M807.12,327.9V306.78H812.4V316.9l6.765-10.117h5.96l-7.248,10.434,7.764,10.688H819.3L812.4,317.563V327.9Z" transform="translate(-807.12 -306.78)" fill="#fff"/>
      </g>
      <g id="Group_1152" data-name="Group 1152" transform="translate(22.387 0.381)">
        <path id="Path_1370" data-name="Path 1370" d="M157.167,323.811H148.4l-1.41,4.091h-5.81l8.527-21.122H155.9l8.527,21.122H158.61Zm-7.324-4.123h5.88l-2.923-8.912Z" transform="translate(-141.18 -306.78)" fill="#fff"/>
      </g>
      <g id="Group_1153" data-name="Group 1153" transform="translate(82.522 0.381)">
        <path id="Path_1371" data-name="Path 1371" d="M536.387,323.811H527.62l-1.41,4.091H520.4l8.527-21.122h6.189l8.526,21.122h-5.81Zm-7.324-4.123h5.88l-2.922-8.912Z" transform="translate(-520.4 -306.78)" fill="#fff"/>
      </g>
    </g>
    <g id="Component_12_161" data-name="Component 12 – 161" transform="translate(211.542 90.83)" clip-path="url(#clip-path)">
      <path id="Path_1372" data-name="Path 1372" d="M557.355,21.108c7.134-4.364,7.8-13.176,7.8-13.176h-6.788c-2.415,8.875-9.338,9.61-10.75,9.665.04-1.267.674-8.357,9.838-10.808V0s-8.967.671-13.408,7.8c0,0-3.673-6.882-13.322-7.8V6.966s8.756.656,9.87,10.636h-.008s-8.309.233-11-9.67H522.8s.671,8.812,7.8,13.176c0,0-6.882,3.609-7.8,13.092h6.966s.664-8.7,10.8-9.716c-.025,1.118-.549,8.374-9.839,10.858V42.13s8.967-.671,13.407-7.8c0,0,3.673,6.882,13.322,7.8V35.164s-8.771-.658-9.871-10.661c9.95,1.107,10.605,9.7,10.605,9.7h6.966C564.237,24.715,557.355,21.108,557.355,21.108Z" transform="translate(-522.8)" fill="url(#linear-gradient)"/>
    </g>
  </g>
</svg>
